<svg width="167" height="167" xmlns="http://www.w3.org/2000/svg" xmlns:xlink="http://www.w3.org/1999/xlink" xml:space="preserve" overflow="hidden"><g><path d="M93.9375 10.4375C93.9375 4.66426 89.2732 0 83.5 0 77.7268 0 73.0625 4.66426 73.0625 10.4375L73.0625 89.5994 49.1215 65.6584C45.0443 61.5812 38.423 61.5812 34.3459 65.6584 30.2688 69.7355 30.2688 76.3568 34.3459 80.434L76.0959 122.184C80.173 126.261 86.7943 126.261 90.8715 122.184L132.621 80.434C136.699 76.3568 136.699 69.7355 132.621 65.6584 128.544 61.5812 121.923 61.5812 117.846 65.6584L93.9375 89.5994 93.9375 10.4375ZM20.875 114.812C9.36113 114.812 0 124.174 0 135.688L0 146.125C0 157.639 9.36113 167 20.875 167L146.125 167C157.639 167 167 157.639 167 146.125L167 135.688C167 124.174 157.639 114.812 146.125 114.812L113.019 114.812 98.243 129.588C90.0887 137.742 76.8787 137.742 68.7244 129.588L53.9814 114.812 20.875 114.812ZM140.906 133.078C145.23 133.078 148.734 136.583 148.734 140.906 148.734 145.23 145.23 148.734 140.906 148.734 136.583 148.734 133.078 145.23 133.078 140.906 133.078 136.583 136.583 133.078 140.906 133.078Z" fill="#203864"/></g></svg>