<svg width="188" height="150" xmlns="http://www.w3.org/2000/svg" xmlns:xlink="http://www.w3.org/1999/xlink" xml:space="preserve" overflow="hidden"><g><path d="M56.25 18.75C25.1953 18.75 0 43.9453 0 75 0 106.055 25.1953 131.25 56.25 131.25L131.25 131.25C162.305 131.25 187.5 106.055 187.5 75 187.5 43.9453 162.305 18.75 131.25 18.75L56.25 18.75ZM145.312 49.2188C151.785 49.2188 157.031 54.4654 157.031 60.9375 157.031 67.4096 151.785 72.6562 145.312 72.6562 138.84 72.6562 133.594 67.4096 133.594 60.9375 133.594 54.4654 138.84 49.2188 145.312 49.2188ZM114.844 89.0625C114.844 82.5904 120.09 77.3438 126.562 77.3438 133.035 77.3438 138.281 82.5904 138.281 89.0625 138.281 95.5346 133.035 100.781 126.562 100.781 120.09 100.781 114.844 95.5346 114.844 89.0625ZM49.2188 58.5938C49.2188 54.6973 52.3535 51.5625 56.25 51.5625 60.1465 51.5625 63.2812 54.6973 63.2812 58.5938L63.2812 67.9688 72.6562 67.9688C76.5527 67.9688 79.6875 71.1035 79.6875 75 79.6875 78.8965 76.5527 82.0312 72.6562 82.0312L63.2812 82.0312 63.2812 91.4062C63.2812 95.3027 60.1465 98.4375 56.25 98.4375 52.3535 98.4375 49.2188 95.3027 49.2188 91.4062L49.2188 82.0312 39.8438 82.0312C35.9473 82.0312 32.8125 78.8965 32.8125 75 32.8125 71.1035 35.9473 67.9688 39.8438 67.9688L49.2188 67.9688 49.2188 58.5938Z" fill="#002060" transform="scale(1.00267 1)"/></g></svg>