<svg width="179" height="159" xmlns="http://www.w3.org/2000/svg" xmlns:xlink="http://www.w3.org/1999/xlink" xml:space="preserve" overflow="hidden"><defs><clipPath id="clip0"><rect x="0" y="0" width="179" height="159"/></clipPath></defs><g clip-path="url(#clip0)"><path d="M78.6613 10.9002C80.5557 7.23574 79.1276 2.73281 75.4937 0.838474 71.8603-1.05586 67.3267 0.372656 65.4323 4.00606L36.5203 59.625 9.9375 59.625C4.44082 59.625 0 64.0658 0 69.5628 0 75.0592 4.44082 79.5 9.9375 79.5L26.0549 143.939C28.2597 152.789 36.2097 159 45.3398 159L133.535 159C142.665 159 150.615 152.789 152.82 143.939L168.937 79.5C174.434 79.5 178.875 75.0592 178.875 69.5628 178.875 64.0658 174.434 59.625 168.937 59.625L142.355 59.625 113.443 4.00606C111.548 0.372656 107.045-1.05586 103.381 0.838474 99.7166 2.73281 98.3193 7.23574 100.214 10.9002L125.554 59.625 53.3209 59.625 78.6613 10.9002ZM59.625 94.4064 59.625 124.219C59.625 126.952 57.3891 129.187 54.6563 129.187 51.9234 129.187 49.6875 126.952 49.6875 124.219L49.6875 94.4064C49.6875 91.6732 51.9234 89.4372 54.6563 89.4372 57.3891 89.4372 59.625 91.6732 59.625 94.4064ZM89.4372 89.4372C92.1703 89.4372 94.4064 91.6732 94.4064 94.4064L94.4064 124.219C94.4064 126.952 92.1703 129.187 89.4372 129.187 86.7046 129.187 84.4686 126.952 84.4686 124.219L84.4686 94.4064C84.4686 91.6732 86.7046 89.4372 89.4372 89.4372ZM129.187 94.4064 129.187 124.219C129.187 126.952 126.952 129.187 124.219 129.187 121.486 129.187 119.25 126.952 119.25 124.219L119.25 94.4064C119.25 91.6732 121.486 89.4372 124.219 89.4372 126.952 89.4372 129.187 91.6732 129.187 94.4064Z" stroke="#000000" stroke-width="0.310525" fill="#1F3763" transform="scale(1.0007 1)"/></g></svg>