<svg width="167" height="191" xmlns="http://www.w3.org/2000/svg" xmlns:xlink="http://www.w3.org/1999/xlink" xml:space="preserve" overflow="hidden"><defs><clipPath id="clip0"><rect x="0" y="0" width="167" height="191"/></clipPath></defs><g clip-path="url(#clip0)"><path d="M83.5 95.4286C109.852 95.4286 131.214 74.0662 131.214 47.7143 131.214 21.3624 109.852-1.05947e-14 83.5-1.05947e-14 57.1481-1.05947e-14 35.7857 21.3624 35.7857 47.7143 35.7857 74.0662 57.1481 95.4286 83.5 95.4286ZM66.4645 113.321C29.7469 113.321 0 143.068 0 179.786 0 185.899 4.95781 190.857 11.0712 190.857L155.929 190.857C162.042 190.857 167 185.899 167 179.786 167 143.068 137.253 113.321 100.535 113.321L66.4645 113.321Z" fill="#203864" transform="scale(1 1.00075)"/></g></svg>